{
  "asset": {
    "generator": "Khronos glTF Blender I/O v1.0.5",
    "version": "2.0"
  },
  "scene": 0,
  "scenes": [
    {
      "name": "Scene",
      "nodes": [1, 2]
    }
  ],
  "nodes": [
    {
      "camera": 0,
      "name": "Camera",
      "rotation": [-0.7071067690849304, 0, 0, 0.7071067690849304]
    },
    {
      "children": [0],
      "rotation": [0.483536034822464, 0.33687159419059753, -0.20870360732078552, 0.7804827094078064],
      "translation": [7.358891487121582, 4.958309173583984, 6.925790786743164]
    },
    {
      "mesh": 0,
      "name": "Penguin",
      "rotation": [0.7071068286895752, 0, 0, 0.7071067094802856]
    }
  ],
  "cameras": [
    {
      "name": "Camera",
      "orthographic": {
        "xmag": 7.314285755157471,
        "ymag": 7.314285755157471,
        "zfar": 100,
        "znear": 0.10000000149011612
      },
      "type": "orthographic"
    }
  ],
  "materials": [
    {
      "doubleSided": true,
      "name": "barva",
      "pbrMetallicRoughness": {
        "baseColorTexture": {
          "index": 0,
          "texCoord": 0
        },
        "metallicFactor": 0,
        "roughnessFactor": 0.5
      }
    }
  ],
  "meshes": [
    {
      "name": "Penguin",
      "primitives": [
        {
          "attributes": {
            "POSITION": 0,
            "NORMAL": 1,
            "TEXCOORD_0": 2
          },
          "indices": 3,
          "material": 0
        }
      ]
    }
  ],
  "textures": [
    {
      "source": 0
    }
  ],
  "images": [
    {
      "mimeType": "image/png",
      "name": "1",
      "uri": "1.png"
    }
  ],
  "accessors": [
    {
      "bufferView": 0,
      "componentType": 5126,
      "count": 368,
      "max": [0.29249998927116394, 0.29249998927116394, 0],
      "min": [-0.29249998927116394, -0.29249998927116394, -0.9900000095367432],
      "type": "VEC3"
    },
    {
      "bufferView": 1,
      "componentType": 5126,
      "count": 368,
      "type": "VEC3"
    },
    {
      "bufferView": 2,
      "componentType": 5126,
      "count": 368,
      "type": "VEC2"
    },
    {
      "bufferView": 3,
      "componentType": 5123,
      "count": 552,
      "type": "SCALAR"
    }
  ],
  "bufferViews": [
    {
      "buffer": 0,
      "byteLength": 4416,
      "byteOffset": 0
    },
    {
      "buffer": 0,
      "byteLength": 4416,
      "byteOffset": 4416
    },
    {
      "buffer": 0,
      "byteLength": 2944,
      "byteOffset": 8832
    },
    {
      "buffer": 0,
      "byteLength": 1104,
      "byteOffset": 11776
    }
  ],
  "buffers": [
    {
      "byteLength": 12880,
      "uri": "pingvin2.bin"
    }
  ]
}
